# xmcd
#
# Track frame offsets: 
#        150
#        13942
#        25465
#        39480
#        52095
#        66302
#        80252
#        96890
#        111817
#        127680
#        142042
#
# Disc length: 2088 seconds
#
# Revision: 2
# Processed by: cddbd v1.4PL0 Copyright (c) Steve Scherf et al.
# Submitted via: ExactAudioCopy v0.90b3
#
DISCID=9508260b
DTITLE=Kris Kristofferson and Rita Coolidge - Breakaway
DYEAR=1900
DGENRE=Country
TTITLE0=Lover Please
TTITLE1=Sweet Susannah
TTITLE2=Dakota (The Dancing Bear)
TTITLE3=What'cha Gonna Do
TTITLE4=The Things I Might Have Been
TTITLE5=Slow Down
TTITLE6=Rain
TTITLE7=We Must Have Been Out Of Our Minds
TTITLE8=I've Got To Have You
TTITLE9=I'd Rather Be Sorry
TTITLE10=Crippled Crow
EXTD=Copyright 1974 and 1991 Sony Music\nDigital Remastering by Don Meeh
EXTD=an\nPreviously released as CBS Records
EXTT0=
EXTT1=
EXTT2=
EXTT3=
EXTT4=
EXTT5=
EXTT6=
EXTT7=
EXTT8=
EXTT9=
EXTT10=
PLAYORDER=
